<svg xmlns="http://www.w3.org/2000/svg" width="1600" height="1000" viewBox="0 0 1600 1000">
  <!-- September: Ganesh Chaturthi (Ganesha outline + Modaks) -->
  <defs>
    <linearGradient id="bg9" x1="0" y1="0" x2="1" y2="1">
      <stop offset="0" stop-color="#0b1730"/>
      <stop offset="1" stop-color="#102a4c"/>
    </linearGradient>
    <linearGradient id="gan" x1="0" y1="0" x2="1" y2="0">
      <stop offset="0" stop-color="#fb7185"/>
      <stop offset="1" stop-color="#f472b6"/>
    </linearGradient>
  </defs>
  <rect width="1600" height="1000" fill="url(#bg9)"/>
  <!-- Abstract Ganesha line -->
  <g transform="translate(1180 300) scale(0.9)" opacity="0.7" fill="none" stroke="url(#gan)" stroke-width="8" stroke-linecap="round">
    <path d="M0,-60 C-40,-40 -50,-10 -30,10 C-10,30 20,20 30,0 C40,-20 20,-40 0,-60 Z"/>
    <path d="M-20,40 C-10,20 10,20 20,40"/>
    <path d="M-50,10 C-70,30 -60,60 -30,80"/>
  </g>
  <!-- Modaks -->
  <g transform="translate(420 420)" opacity="0.65" fill="#f59e0b">
    <path d="M0,40 C-20,20 -10,-10 0,-20 C10,-10 20,20 0,40 Z"/>
    <path d="M60,44 C40,22 50,-8 60,-18 C70,-8 80,22 60,44 Z"/>
    <path d="M120,38 C100,18 110,-10 120,-18 C130,-10 140,18 120,38 Z"/>
  </g>
</svg>
