<svg xmlns="http://www.w3.org/2000/svg" width="1600" height="1000" viewBox="0 0 1600 1000">
  <!-- June: Rath Yatra (Chariot + Wheel) -->
  <defs>
    <linearGradient id="bg6" x1="0" y1="0" x2="1" y2="1">
      <stop offset="0" stop-color="#0b1730"/>
      <stop offset="1" stop-color="#102a4c"/>
    </linearGradient>
    <linearGradient id="spire" x1="0" y1="0" x2="0" y2="1">
      <stop offset="0" stop-color="#ef4444"/>
      <stop offset="1" stop-color="#f97316"/>
    </linearGradient>
  </defs>
  <rect width="1600" height="1000" fill="url(#bg6)"/>
  <!-- Chariot silhouette -->
  <g opacity="0.55" fill="url(#spire)">
    <path d="M300,720 L520,720 L520,660 C520,600 480,540 410,500 C340,540 300,600 300,660 Z"/>
    <path d="M410,500 C390,470 370,450 360,420 C380,440 400,450 410,420 C420,450 440,440 460,420 C450,450 430,470 410,500 Z"/>
  </g>
  <!-- Wheels -->
  <g opacity="0.6" stroke="#fb923c" stroke-width="8" fill="none">
    <circle cx="340" cy="730" r="44"/>
    <circle cx="480" cy="730" r="44"/>
    <g stroke-width="5">
      <line x1="340" y1="730" x2="340" y2="686"/>
      <line x1="340" y1="730" x2="384" y2="730"/>
      <line x1="340" y1="730" x2="310" y2="760"/>
    </g>
  </g>
</svg>
