<svg xmlns="http://www.w3.org/2000/svg" width="1600" height="1000" viewBox="0 0 1600 1000">
  <!-- November: Diwali (Diyas + Fireworks) -->
  <defs>
    <linearGradient id="bg11" x1="0" y1="0" x2="1" y2="1">
      <stop offset="0" stop-color="#0b1730"/>
      <stop offset="1" stop-color="#102a4c"/>
    </linearGradient>
    <filter id="glow11"><feGaussianBlur stdDeviation="3"/></filter>
  </defs>
  <rect width="1600" height="1000" fill="url(#bg11)"/>
  <!-- Diyas -->
  <g transform="translate(420 580)" opacity="0.85" filter="url(#glow11)">
    <ellipse cx="0" cy="40" rx="80" ry="26" fill="#f59e0b" opacity="0.25"/>
    <path d="M-80,40 C-20,90 20,90 80,40 C60,36 -60,36 -80,40 Z" fill="#f59e0b"/>
    <path d="M0,-10 C-12,16 -6,28 0,32 C6,28 12,16 0,-10 Z" fill="#fde68a"/>
  </g>
  <g transform="translate(1180 540) scale(0.9)" opacity="0.85" filter="url(#glow11)">
    <ellipse cx="0" cy="40" rx="80" ry="26" fill="#f59e0b" opacity="0.25"/>
    <path d="M-80,40 C-20,90 20,90 80,40 C60,36 -60,36 -80,40 Z" fill="#f59e0b"/>
    <path d="M0,-10 C-12,16 -6,28 0,32 C6,28 12,16 0,-10 Z" fill="#fde68a"/>
  </g>
  <!-- Fireworks -->
  <g opacity="0.5" stroke-width="4" stroke-linecap="round">
    <g stroke="#38bdf8">
      <path d="M260,220 l20,-40"/>
      <path d="M260,220 l-20,-40"/>
      <path d="M260,220 l40,0"/>
      <path d="M260,220 l-40,0"/>
    </g>
    <g stroke="#f472b6">
      <path d="M860,260 l18,-38"/>
      <path d="M860,260 l-18,-38"/>
      <path d="M860,260 l36,0"/>
      <path d="M860,260 l-36,0"/>
    </g>
  </g>
</svg>
