<svg xmlns="http://www.w3.org/2000/svg" width="1600" height="1000" viewBox="0 0 1600 1000">
  <!-- August: Onam (Pookalam + Snake Boat) -->
  <defs>
    <linearGradient id="bg8" x1="0" y1="0" x2="1" y2="1">
      <stop offset="0" stop-color="#0b1730"/>
      <stop offset="1" stop-color="#102a4c"/>
    </linearGradient>
    <filter id="blur8"><feGaussianBlur stdDeviation="1.5"/></filter>
  </defs>
  <rect width="1600" height="1000" fill="url(#bg8)"/>
  <!-- Pookalam floral ring -->
  <g transform="translate(1240 280)" opacity="0.65">
    <circle r="120" fill="none" stroke="#fbbf24" stroke-width="18"/>
    <circle r="88" fill="none" stroke="#ef4444" stroke-width="12"/>
    <circle r="62" fill="none" stroke="#22c55e" stroke-width="10"/>
    <g fill="#f59e0b">
      <circle r="8" transform="rotate(0) translate(0,-120)"/>
      <circle r="8" transform="rotate(45) translate(0,-120)"/>
      <circle r="8" transform="rotate(90) translate(0,-120)"/>
      <circle r="8" transform="rotate(135) translate(0,-120)"/>
      <circle r="8" transform="rotate(180) translate(0,-120)"/>
      <circle r="8" transform="rotate(225) translate(0,-120)"/>
      <circle r="8" transform="rotate(270) translate(0,-120)"/>
      <circle r="8" transform="rotate(315) translate(0,-120)"/>
    </g>
  </g>
  <!-- Snake boat silhouette -->
  <g transform="translate(440 560)" opacity="0.55" filter="url(#blur8)">
    <path d="M-260,60 C-140,80 160,80 300,60 C180,100 -180,100 -260,60 Z" fill="#1f2937"/>
    <path d="M-260,60 C-260,20 -220,-10 -180,-20 C-210,0 -220,40 -220,70 Z" fill="#1f2937"/>
  </g>
</svg>
