<svg xmlns="http://www.w3.org/2000/svg" width="1600" height="1000" viewBox="0 0 1600 1000">
  <!-- July: Guru Purnima (Book + Lamp) -->
  <defs>
    <linearGradient id="bg7" x1="0" y1="0" x2="1" y2="1">
      <stop offset="0" stop-color="#0b1730"/>
      <stop offset="1" stop-color="#102a4c"/>
    </linearGradient>
    <filter id="glow7" x="-50%" y="-50%" width="200%" height="200%">
      <feGaussianBlur stdDeviation="4" result="b"/>
      <feMerge><feMergeNode in="b"/><feMergeNode in="SourceGraphic"/></feMerge>
    </filter>
  </defs>
  <rect width="1600" height="1000" fill="url(#bg7)"/>
  <!-- Lamp (diya) -->
  <g transform="translate(1160 340) scale(0.9)" opacity="0.7" filter="url(#glow7)">
    <ellipse cx="0" cy="40" rx="80" ry="26" fill="#f59e0b" opacity="0.3"/>
    <path d="M-80,40 C-20,90 20,90 80,40 C60,36 -60,36 -80,40 Z" fill="#f59e0b"/>
    <path d="M0,-10 C-12,16 -6,28 0,32 C6,28 12,16 0,-10 Z" fill="#fde68a"/>
  </g>
  <!-- Book -->
  <g transform="translate(420 360) rotate(-6)" opacity="0.6">
    <rect x="-140" y="-60" width="280" height="120" rx="8" fill="#334155"/>
    <path d="M0,-60 L0,60" stroke="#94a3b8" stroke-width="2"/>
    <path d="M-140,-60 C-80,-40 -80,40 -140,60" fill="#1f2937" opacity="0.8"/>
    <path d="M140,-60 C80,-40 80,40 140,60" fill="#1f2937" opacity="0.8"/>
  </g>
</svg>
